<svg xmlns="http://www.w3.org/2000/svg" fill="currentColor" viewBox="0 0 64 64"><path d="M22.2.6h23.4c.5 0 1 .2 1.4.6l16.5 16.5c.4.4.6.9.6 1.4v37.5c-.3 3.8-3.6 7.1-7.4 7.4H22.3c-3.1-.2-6-2.3-7.1-5.2-.4-1-.5-2.4-.5-3.5 0-.7.3-1.3.2-1.2 1.1-2.2 4.6-1.1 4.2 1.6v.2c0 1.9 1.7 3.5 3.6 3.6h33.1c1.9-.1 3.5-1.8 3.6-3.6V24.7c0-2.1-1.7-3.9-3.9-3.9H49c-3.8-.4-6.8-3.4-7.3-7.3v-5c0-2.1-1.7-3.9-3.9-3.9h-15c-2 .1-3.6 1.9-3.6 3.9v10.4c0 2.7-4.3 2.7-4.4 0V7.7c.1-3.9 3.5-7 7.4-7.1"/><path d="M0 30.6h8c2.3 0 4 .5 5.2 1.7q1.8 1.65 1.8 4.5c0 1.3-.3 2.4-.9 3.4-.6.9-1.5 1.6-2.8 2l4.2 6.8H9.6L6 42.7H4.7V49H0ZM7 39c1.3 0 2.1-.2 2.6-.6s.7-1 .7-1.7-.2-1.3-.7-1.7-1.3-.6-2.6-.6H4.7V39ZM18.3 30.6h4.2l7.1 10.3V30.6h5v18.5h-4.5L23 38.8v10.3h-4.7ZM46.2 49.2c-1.3 0-2.4-.2-3.5-.5s-2-.9-2.8-1.7-1.4-1.8-1.9-3c-.4-1.2-.7-2.6-.7-4.3v-.5c0-1.6.2-3 .7-4.1.5-1.2 1.1-2.1 1.9-2.8.8-.8 1.7-1.3 2.8-1.7 1-.4 2.2-.5 3.4-.5 1.1 0 2 .1 2.9.4q1.35.3 2.4 1.2c.7.5 1.3 1.2 1.7 2 .5.8.8 1.8.9 2.9h-4.9c-.1-.5-.3-.9-.5-1.2s-.5-.6-.8-.7c-.3-.2-.6-.3-.9-.4s-.6-.1-.9-.1c-.6 0-1.1.1-1.6.3s-.8.5-1.2.9c-.3.4-.6.9-.8 1.6s-.3 1.5-.3 2.5v.5c0 1 .1 1.8.3 2.5s.5 1.2.8 1.7c.4.4.8.8 1.2 1 .5.2 1 .3 1.6.3.5 0 .9-.1 1.4-.2q.75-.15 1.2-.6c.4-.3.7-.6.9-1s.3-.9.4-1.4h-3.4v-3h7.7v1.2c0 1.6-.2 2.9-.6 4s-1 2-1.7 2.7-1.6 1.2-2.6 1.6c-1 .3-2.1.5-3.3.5Z"/></svg>